PathFileType	4	(X/Y/Z)	/Users/itak/Documents/Research/Walk-IL/dataset/trc/00457_00167.trc
DataRate	CameraRate	NumFrames	NumMarkers	Units	OrigDataRate	OrigDataStartFrame	OrigNumFrames
100.000000	100.000000	4	53	mm	100.000000	69	557
Frame#	Time	RPSI			LPSI			L3			STRN			T10			C7			CLAV			RBAK			LBAK			LSHO			LUPA			LAEL			LAOL			LWTS			LWPS			LFRA			LIFD			LHPS			LHTS			RSHO			RUPA			RAEL			RAOL			RWTS			RWPS			RFRA			RIFD			RHTS			RHPS			RBHD			LFHD			RFHD			LBHD			LHIP			RHIP			RASI			LASI			LKNE			LTHI			LANK			LTIP			LTOE			LMT1			LMT5			LHEE			RKNE			RTHI			RANK			RTIP			RTOE			RMT1			RMT5			RHEE			
		X1	Y1	Z1	X2	Y2	Z2	X3	Y3	Z3	X4	Y4	Z4	X5	Y5	Z5	X6	Y6	Z6	X7	Y7	Z7	X8	Y8	Z8	X9	Y9	Z9	X10	Y10	Z10	X11	Y11	Z11	X12	Y12	Z12	X13	Y13	Z13	X14	Y14	Z14	X15	Y15	Z15	X16	Y16	Z16	X17	Y17	Z17	X18	Y18	Z18	X19	Y19	Z19	X20	Y20	Z20	X21	Y21	Z21	X22	Y22	Z22	X23	Y23	Z23	X24	Y24	Z24	X25	Y25	Z25	X26	Y26	Z26	X27	Y27	Z27	X28	Y28	Z28	X29	Y29	Z29	X30	Y30	Z30	X31	Y31	Z31	X32	Y32	Z32	X33	Y33	Z33	X34	Y34	Z34	X35	Y35	Z35	X36	Y36	Z36	X37	Y37	Z37	X38	Y38	Z38	X39	Y39	Z39	X40	Y40	Z40	X41	Y41	Z41	X42	Y42	Z42	X43	Y43	Z43	X44	Y44	Z44	X45	Y45	Z45	X46	Y46	Z46	X47	Y47	Z47	X48	Y48	Z48	X49	Y49	Z49	X50	Y50	Z50	X51	Y51	Z51	X52	Y52	Z52	X53	Y53	Z53	

70	0.6900000000000001	-1305.294555664062	968.7215576171875	-533.3672485351562	-1320.472778320312	968.444580078125	-674.42236328125	-1295.40869140625	1058.584106445312	-589.3953857421875	-1032.364013671875	1259.542114257812	-634.21875	-1314.360717773438	1184.01953125	-587.4404296875	-1248.344848632812	1452.918090820312	-581.6209716796875	-1069.910034179688	1372.342163085938	-630.0432739257812	-1295.080444335938	1330.748901367188	-479.6779174804688	-1299.442260742188	1406.135498046875	-673.7836303710938	-1214.937255859375	1431.778930664062	-771.5919189453125	-1239.2939453125	1313.691162109375	-867.1451416015625	-1217.290893554688	1100.353881835938	-909.88232421875	-1279.40771484375	1079.932495117188	-830.1138916015625	-1115.02587890625	910.3941650390625	-892.5910034179688	-1171.176147460938	890.2572631835938	-936.2640380859375	-1192.650390625	1014.72802734375	-926.1453857421875	-1072.175415039062	753.8679809570312	-929.0877685546875	-1149.714233398438	816.7260131835938	-948.7667846679688	-1085.972290039062	835.5364379882812	-920.8895874023438	-1155.771728515625	1421.224609375	-435.3836669921875	-1160.789794921875	1357.088012695312	-359.4293518066406	-1135.49658203125	1067.877807617188	-318.0639038085938	-1192.9462890625	1050.687255859375	-348.6515502929688	-1035.390625	870.2081298828125	-391.2297058105469	-1090.014892578125	851.2552490234375	-323.4654235839844	-1126.474853515625	1008.877258300781	-313.4376831054688	-1023.459045410156	713.8733520507812	-381.3404235839844	-1014.146789550781	773.0977783203125	-383.0165100097656	-1071.447021484375	766.4794921875	-331.184326171875	-1127.145751953125	1651.859252929688	-512.589111328125	-1016.572448730469	1648.4755859375	-687.3893432617188	-996.2849731445312	1647.654907226562	-558.2882080078125	-1169.14990234375	1660.027221679688	-684.8618774414062	-1200.219360351562	867.2976684570312	-808.1084594726562	-1177.03564453125	861.4727783203125	-410.519287109375	-1075.055053710938	902.1167602539062	-481.9904479980469	-1091.941772460938	904.17822265625	-740.4027099609375	-1178.145385742188	447.3590393066406	-778.4310302734375	-1162.77978515625	599.65478515625	-802.9488525390625	-1275.1376953125	39.77178192138672	-767.7579956054688	-1196.387084960938	296.9696960449219	-790.639404296875	-1033.542846679688	43.57172393798828	-725.8720092773438	-1104.542846679688	51.96100234985352	-688.2913818359375	-1122.566162109375	45.1593132019043	-801.1746215820312	-1309.138793945312	45.05045318603516	-696.84423828125	-1158.18505859375	468.7584533691406	-445.1174011230469	-1133.406127929688	728.7169799804688	-404.6651306152344	-1214.680541992188	44.20140075683594	-435.4227905273438	-1158.44775390625	326.9606018066406	-435.4396667480469	-1009.223083496094	46.98004150390625	-517.595947265625	-1077.3828125	51.7215461730957	-543.2725830078125	-1077.585327148438	48.56872177124023	-435.1992492675781	-1287.542602539062	34.97822570800781	-471.9174499511719	
71	0.7000000000000001	-1305.433471679688	968.8365478515625	-533.7440795898438	-1320.636962890625	968.4942626953125	-674.7741088867188	-1295.518432617188	1058.546752929688	-589.8082275390625	-1032.472534179688	1259.615234375	-634.6345825195312	-1314.373168945312	1183.973266601562	-587.9685668945312	-1248.561401367188	1452.935546875	-582.1737670898438	-1070.063598632812	1372.364501953125	-630.50341796875	-1295.300048828125	1330.739624023438	-480.276123046875	-1299.646484375	1406.107177734375	-674.3792724609375	-1215.099853515625	1431.766479492188	-772.154052734375	-1239.2685546875	1313.622680664062	-867.70166015625	-1216.653686523438	1100.301879882812	-910.4326171875	-1278.9404296875	1079.7587890625	-830.8250732421875	-1113.74267578125	910.6873168945312	-892.5825805664062	-1169.538452148438	890.3968505859375	-936.5110473632812	-1191.588623046875	1014.774719238281	-926.5325927734375	-1069.822021484375	754.3750610351562	-928.8236083984375	-1147.797119140625	816.9426879882812	-948.859130859375	-1084.326293945312	835.9292602539062	-920.737060546875	-1156.068481445312	1421.317260742188	-435.9060974121094	-1161.171508789062	1357.198486328125	-359.9262390136719	-1135.70947265625	1067.946044921875	-318.4364929199219	-1193.074340820312	1050.641235351562	-349.1039428710938	-1034.979736328125	870.7965698242188	-391.9126281738281	-1089.457641601562	851.4083251953125	-324.2001342773438	-1126.537353515625	1008.93408203125	-313.8858947753906	-1022.1904296875	714.5833740234375	-382.5914001464844	-1013.147399902344	773.8469848632812	-384.0208435058594	-1070.393310546875	766.7109985351562	-332.1600646972656	-1127.657470703125	1651.881103515625	-513.0628051757812	-1017.0625	1648.777954101562	-687.8720703125	-996.7001953125	1647.958374023438	-558.7908325195312	-1169.6826171875	1660.068481445312	-685.2844848632812	-1200.516235351562	867.2970581054688	-808.5523681640625	-1177.171997070312	861.5009765625	-411.1690979003906	-1075.17529296875	902.1273803710938	-482.486083984375	-1092.149658203125	904.1912231445312	-740.90380859375	-1178.446655273438	447.4118041992188	-778.6348266601562	-1163.114501953125	599.6718139648438	-803.29248046875	-1275.167358398438	39.75874710083008	-767.7637329101562	-1196.655029296875	296.9651184082031	-790.8583984375	-1033.554077148438	43.58657073974609	-725.8833618164062	-1104.5576171875	51.94851303100586	-688.2747192382812	-1122.569091796875	45.16090774536133	-801.1699829101562	-1309.153686523438	45.04597854614258	-696.8621826171875	-1158.138427734375	468.8039855957031	-445.3905639648438	-1133.6337890625	728.8285522460938	-404.8241882324219	-1214.694458007812	44.19349670410156	-435.4209289550781	-1158.424926757812	327.0148010253906	-435.5944519042969	-1009.221313476562	46.98700714111328	-517.5717163085938	-1077.343017578125	51.65576553344727	-543.2509155273438	-1077.576049804688	48.54607391357422	-435.1619567871094	-1287.54150390625	34.99308776855469	-471.931640625	
72	0.71	-1305.566650390625	968.9920654296875	-534.1188354492188	-1320.779418945312	968.56591796875	-675.11083984375	-1295.608154296875	1058.526245117188	-590.2194213867188	-1032.600463867188	1259.6953125	-635.0372924804688	-1314.404296875	1183.926391601562	-588.486083984375	-1248.77490234375	1452.95654296875	-582.7169189453125	-1070.200073242188	1372.39697265625	-630.9381103515625	-1295.5078125	1330.73681640625	-480.8696594238281	-1299.843994140625	1406.078247070312	-674.9711303710938	-1215.253173828125	1431.765014648438	-772.6987915039062	-1239.200439453125	1313.5703125	-868.2550659179688	-1216.006591796875	1100.239624023438	-910.9528198242188	-1278.468505859375	1079.595703125	-831.503662109375	-1112.510131835938	910.9191284179688	-892.5732421875	-1168.002197265625	890.4786987304688	-936.728515625	-1190.554565429688	1014.816284179688	-926.8805541992188	-1067.781860351562	754.7493286132812	-928.5830688476562	-1146.057373046875	817.1292724609375	-948.9307861328125	-1082.821655273438	836.25732421875	-920.5826416015625	-1156.369995117188	1421.424926757812	-436.4188842773438	-1161.562622070312	1357.326538085938	-360.3991088867188	-1135.942749023438	1068.038818359375	-318.775146484375	-1193.188720703125	1050.614990234375	-349.5585327148438	-1034.508422851562	871.3950805664062	-392.5185546875	-1088.912231445312	851.5940551757812	-324.8904113769531	-1126.595581054688	1009.023010253906	-314.3050842285156	-1020.933044433594	715.3026123046875	-383.7177124023438	-1012.167785644531	774.5989379882812	-384.928466796875	-1069.373168945312	766.9735717773438	-333.0690002441406	-1128.157836914062	1651.899536132812	-513.5013427734375	-1017.536865234375	1649.086547851562	-688.3336791992188	-997.11181640625	1648.24462890625	-559.266845703125	-1170.209350585938	1660.11474609375	-685.6903686523438	-1200.776611328125	867.3037109375	-808.9991455078125	-1177.326416015625	861.5511474609375	-411.8385009765625	-1075.40380859375	902.1312866210938	-482.9874572753906	-1092.36181640625	904.203369140625	-741.3821411132812	-1178.742065429688	447.4552307128906	-778.8134155273438	-1163.459594726562	599.688232421875	-803.61328125	-1275.196044921875	39.74216842651367	-767.76611328125	-1196.920776367188	296.9664001464844	-791.0609741210938	-1033.56640625	43.6015510559082	-725.8929443359375	-1104.571899414062	51.93341827392578	-688.2538452148438	-1122.572143554688	45.16483688354492	-801.1639404296875	-1309.169921875	45.04844284057617	-696.8782348632812	-1158.093383789062	468.8617553710938	-445.6331176757812	-1133.833374023438	728.9447021484375	-405.0508117675781	-1214.708374023438	44.18377304077148	-435.4152221679688	-1158.413696289062	327.0710144042969	-435.7206726074219	-1009.220947265625	46.99291610717773	-517.5470581054688	-1077.307861328125	51.59991073608398	-543.2263793945312	-1077.566772460938	48.52400970458984	-435.1225891113281	-1287.539794921875	35.00586318969727	-471.9425964355469	
73	0.72	-1305.693237304688	969.1846923828125	-534.492919921875	-1320.89794921875	968.6573486328125	-675.44287109375	-1295.676147460938	1058.523193359375	-590.6299438476562	-1032.75537109375	1259.775268554688	-635.43603515625	-1314.460083007812	1183.878173828125	-588.9949951171875	-1248.986694335938	1452.978759765625	-583.26220703125	-1070.324951171875	1372.44287109375	-631.3485107421875	-1295.703125	1330.740844726562	-481.4581604003906	-1300.035278320312	1406.049438476562	-675.5582275390625	-1215.39208984375	1431.7666015625	-773.2238159179688	-1239.07568359375	1313.52490234375	-868.800048828125	-1215.354125976562	1100.1650390625	-911.4392700195312	-1277.996215820312	1079.43994140625	-832.14892578125	-1111.341430664062	911.0997924804688	-892.5662231445312	-1166.578002929688	890.5088500976562	-936.924560546875	-1189.558959960938	1014.847717285156	-927.1902465820312	-1066.03466796875	755.0127563476562	-928.36962890625	-1144.49560546875	817.2778930664062	-948.98779296875	-1081.446044921875	836.5236206054688	-920.4286499023438	-1156.677856445312	1421.545166015625	-436.9216613769531	-1161.954833984375	1357.467163085938	-360.8527221679688	-1136.1796875	1068.155883789062	-319.0882873535156	-1193.287475585938	1050.611328125	-349.9952697753906	-1033.992797851562	871.9927368164062	-393.06103515625	-1088.378784179688	851.8048095703125	-325.5328063964844	-1126.642578125	1009.146911621094	-314.6935729980469	-1019.717590332031	716.0160522460938	-384.7303161621094	-1011.225646972656	775.3392944335938	-385.7403869628906	-1068.399169921875	767.2564086914062	-333.9088745117188	-1128.644165039062	1651.918579101562	-513.9036254882812	-1018.002685546875	1649.39892578125	-688.7738037109375	-997.5310668945312	1648.512451171875	-559.7144165039062	-1170.733520507812	1660.169067382812	-686.0873413085938	-1200.995727539062	867.321044921875	-809.4471435546875	-1177.504272460938	861.6228637695312	-412.5096130371094	-1075.753295898438	902.1192016601562	-483.4983825683594	-1092.57861328125	904.2169799804688	-741.83251953125	-1179.034423828125	447.4850769042969	-778.970703125	-1163.809814453125	599.7001953125	-803.906005859375	-1275.22216796875	39.72407913208008	-767.7653198242188	-1197.186401367188	296.9741821289062	-791.2437133789062	-1033.581909179688	43.61693954467773	-725.9006958007812	-1104.588989257812	51.91703033447266	-688.2301635742188	-1122.576293945312	45.17131805419922	-801.1556396484375	-1309.187377929688	45.05713272094727	-696.8901977539062	-1158.04443359375	468.9281616210938	-445.8568115234375	-1133.983032226562	729.0595092773438	-405.3853454589844	-1214.72216796875	44.17201995849609	-435.4060363769531	-1158.412353515625	327.1263122558594	-435.8233642578125	-1009.220764160156	46.99734497070312	-517.5228881835938	-1077.282592773438	51.56132125854492	-543.1991577148438	-1077.557861328125	48.50336837768555	-435.0821838378906	-1287.53759765625	35.01465225219727	-471.9497375488281	
